<svg width="250" height="29" viewBox="0 0 250 29" fill="none" xmlns="http://www.w3.org/2000/svg">
<g clip-path="url(#clip0_3_6)">
<path fill-rule="evenodd" clip-rule="evenodd" d="M245.306 15.2956L242.284 22.9085H237.18L230.874 6.85669L230.865 6.8784L230.858 6.85669L227.236 15.3674H170.916L170.927 15.3928H168.297L168.308 15.3674H169.731L168.429 12.0282L170.604 6.85669H166.258L168.429 12.0282L167.123 15.3674H134.851L132.997 19.5618L129.345 28.502L126.91 22.8575L112.591 22.9085L107.592 10.6046H94.3088L91.4502 17.2574L62.1208 17.2215L59.842 12.032L56.4261 19.8592L55.2844 17.2215L0 17.2517V0.223755H250V15.2956H245.306ZM217.763 11.746H218.448V6.85669H217.763V11.746ZM216.727 11.746H217.41V6.85669H216.727V11.746ZM211.939 11.746H212.622V6.85669H211.939V11.746ZM203.725 11.746H205.777V6.85669H203.725V11.746ZM121.771 17.8908H122.456V16.2623H121.771V17.8908ZM119.148 17.8908H119.833V13.0025H119.148V17.8908ZM113.842 17.8908H114.527V16.2623H113.842V17.8908ZM113.842 14.63H114.527V13.0025H113.842V14.63Z" fill="#00AAE0"/>
</g>
<defs>
<clipPath id="clip0_3_6">
<rect width="250" height="28.3217" fill="white" transform="translate(0 0.223755)"/>
</clipPath>
</defs>
</svg>
