<svg width="1920" height="37" viewBox="0 0 1920 37" fill="none" xmlns="http://www.w3.org/2000/svg">
<g clip-path="url(#clip0_9_2)">
<path fill-rule="evenodd" clip-rule="evenodd" d="M1920 13.018V37.011H0.00100708V13.045L158.501 13.016L161.323 15.828L156.611 20.516H166.026L161.323 15.828L164.151 13.016H234.068L238.084 8.99899L245.996 1.10899L251.272 6.36799L278.008 6.25099H282.294L293.125 17.048H321.902L328.095 10.874L391.637 10.907L396.574 15.825L403.975 8.44499L406.448 10.907L547.767 10.874L558.686 0.00299072L579.264 20.516L579.271 20.507L579.28 20.516L587.026 12.795H590.313L592.11 14.586L589.255 17.421H594.951L592.11 14.586L593.874 12.831L644.001 12.8V12.795H881.769L888.317 6.25099H899.373L913.035 20.516L913.055 20.497L913.071 20.516L920.918 13.016H1045.5L1048.32 15.828L1043.61 20.516H1053.03L1048.32 15.828L1051.15 13.016H1121.07L1125.08 8.99899L1133 1.10899L1138.27 6.36799L1165.01 6.25099H1169.29L1180.13 17.048H1208.9L1215.1 10.874L1278.64 10.907L1283.57 15.825L1290.98 8.44499L1293.45 10.907L1434.77 10.874L1445.69 0.00299072L1466.26 20.516L1466.27 20.507L1466.28 20.516L1474.03 12.795H1477.31L1479.11 14.586L1476.26 17.421H1481.95L1479.11 14.586L1480.87 12.831L1534 12.798V12.795H1771.77L1778.32 6.25099H1789.37L1803.04 20.516L1803.06 20.497L1803.07 20.516L1810.92 13.016L1920 13.018ZM54.441 16.085H52.957V20.516H54.441V16.085ZM56.686 16.085H55.206V20.516H56.686V16.085ZM67.059 16.085H65.578V20.516H67.059V16.085ZM84.854 16.085H80.409V20.516H84.854V16.085ZM262.406 10.514H260.922V11.991H262.406V10.514ZM268.088 10.514H266.604V14.946H268.088V10.514ZM279.583 10.514H278.099V11.991H279.583V10.514ZM279.583 13.47H278.099V14.946H279.583V13.47ZM941.441 16.085H939.957V20.516H941.441V16.085ZM943.686 16.085H942.206V20.516H943.686V16.085ZM954.059 16.085H952.578V20.516H954.059V16.085ZM971.854 16.085H967.409V20.516H971.854V16.085ZM1149.41 10.514H1147.92V11.991H1149.41V10.514ZM1155.09 10.514H1153.6V14.946H1155.09V10.514ZM1166.58 10.514H1165.1V11.991H1166.58V10.514ZM1166.58 13.47H1165.1V14.946H1166.58V13.47ZM1831.44 16.085H1829.96V20.516H1831.44V16.085ZM1833.69 16.085H1832.21V20.516H1833.69V16.085ZM1844.06 16.085H1842.58V20.516H1844.06V16.085ZM1861.85 16.085H1857.41V20.516H1861.85V16.085ZM158.479 12.993H164.174L164.151 13.016H158.501L158.479 12.993ZM407.477 4.95399L403.975 8.44499L400.463 4.95399H407.477Z" fill="black"/>
</g>
<defs>
<clipPath id="clip0_9_2">
<rect width="1920" height="37" fill="white"/>
</clipPath>
</defs>
</svg>
